<?xml version="1.0" encoding="UTF-8"?>
<svg width="291px" height="56px" viewBox="0 0 291 56" version="1.1" xmlns="http://www.w3.org/2000/svg" xmlns:xlink="http://www.w3.org/1999/xlink">
    <title>logo1-3</title>
    <g id="iteration" stroke="none" stroke-width="1" fill="none" fill-rule="evenodd">
        <g id="concept" transform="translate(-156, -385)">
            <g id="logo1-3" transform="translate(156.0621, 385)">
                <g id="Group">
                    <rect id="Rectangle" fill="#2C2D54" x="3" y="3" width="50" height="50" rx="5"></rect>
                    <circle id="Oval-Copy-13" fill="#FFFFFF" cx="10.437931" cy="27.5" r="2.5"></circle>
                    <rect id="Rectangle-Copy-11" fill="#FFFFFF" x="16.937931" y="25" width="11" height="5" rx="2.5"></rect>
                    <rect id="Rectangle-Copy-12" fill="#FFFFFF" x="30.937931" y="25" width="11" height="5" rx="2.5"></rect>
                    <rect id="Rectangle-Copy-13" fill="#FFFFFF" x="33.937931" y="22" width="5" height="11" rx="2.5"></rect>
                    <rect id="Rectangle-Copy-14" fill="#FFFFFF" x="33.937931" y="8" width="5" height="11" rx="2.5"></rect>
                    <path d="M45.8700739,12.9535714 C47.3375734,12.9535714 48.5272167,14.1432148 48.5272167,15.6107143 L48.5272167,20.925 C48.5272167,22.3924995 47.3375734,23.5821429 45.8700739,23.5821429 C44.4025744,23.5821429 43.212931,22.3924995 43.212931,20.925 L43.212931,15.6107143 C43.212931,14.1432148 44.4025744,12.9535714 45.8700739,12.9535714 Z" id="Rectangle-Copy-15" fill="#FFFFFF" transform="translate(45.8701, 18.2679) rotate(45) translate(-45.8701, -18.2679)"></path>
                    <path d="M26.6057882,12.9535714 C28.0732877,12.9535714 29.262931,14.1432148 29.262931,15.6107143 L29.262931,20.925 C29.262931,22.3924995 28.0732877,23.5821429 26.6057882,23.5821429 C25.1382887,23.5821429 23.9486453,22.3924995 23.9486453,20.925 L23.9486453,15.6107143 C23.9486453,14.1432148 25.1382887,12.9535714 26.6057882,12.9535714 Z" id="Rectangle-Copy-16" fill="#FFFFFF" transform="translate(26.6058, 18.2679) scale(-1, 1) rotate(45) translate(-26.6058, -18.2679)"></path>
                    <path d="M45.8700739,32.2178571 C47.3375734,32.2178571 48.5272167,33.4075005 48.5272167,34.875 L48.5272167,40.1892857 C48.5272167,41.6567852 47.3375734,42.8464286 45.8700739,42.8464286 C44.4025744,42.8464286 43.212931,41.6567852 43.212931,40.1892857 L43.212931,34.875 C43.212931,33.4075005 44.4025744,32.2178571 45.8700739,32.2178571 Z" id="Rectangle-Copy-17" fill="#FFFFFF" transform="translate(45.8701, 37.5321) scale(1, -1) rotate(45) translate(-45.8701, -37.5321)"></path>
                    <path d="M26.6057882,32.2178571 C28.0732877,32.2178571 29.262931,33.4075005 29.262931,34.875 L29.262931,40.1892857 C29.262931,41.6567852 28.0732877,42.8464286 26.6057882,42.8464286 C25.1382887,42.8464286 23.9486453,41.6567852 23.9486453,40.1892857 L23.9486453,34.875 C23.9486453,33.4075005 25.1382887,32.2178571 26.6057882,32.2178571 Z" id="Rectangle-Copy-18" fill="#FFFFFF" transform="translate(26.6058, 37.5321) scale(-1, -1) rotate(45) translate(-26.6058, -37.5321)"></path>
                    <rect id="Rectangle-Copy-19" fill="#FFFFFF" x="33.937931" y="37" width="5" height="11" rx="2.5"></rect>
                    <path d="M45.8,0 C51.3228475,0 55.8,4.4771525 55.8,10 L55.8,45.8 C55.8,51.3228475 51.3228475,55.8 45.8,55.8 L10,55.8 C4.4771525,55.8 0,51.3228475 0,45.8 L0,10 C0,4.4771525 4.4771525,0 10,0 L45.8,0 Z M45.8,5 L10,5 C7.23857625,5 5,7.23857625 5,10 L5,45.8 C5,48.5614237 7.23857625,50.8 10,50.8 L45.8,50.8 C48.5614237,50.8 50.8,48.5614237 50.8,45.8 L50.8,10 C50.8,7.23857625 48.5614237,5 45.8,5 Z" id="Rectangle-Copy-48" fill="#2C2D54" fill-rule="nonzero"></path>
                    <path d="M47.437931,25 C50.2312644,25 53.0245977,25 55.817931,25 L55.817931,30 C53.0245977,30 50.2312644,30 47.437931,30 C46.0572192,30 44.937931,28.8807119 44.937931,27.5 C44.937931,26.1192881 46.0572192,25 47.437931,25 Z" id="Rectangle-Copy-20" fill="#FFFFFF"></path>
                </g>
                <path d="M87.417931,40 C94.7550739,40 98.937931,35.6919946 98.937931,29.2130258 L98.937931,26.6350068 L87.9322167,26.6350068 L87.9322167,30.6377205 L93.4522167,30.6377205 C93.3493596,33.4192673 91.6693596,35.7598372 87.5550739,35.7598372 C82.7550739,35.7598372 80.7322167,32.4016282 80.7322167,27.7204885 L80.7322167,27.449118 C80.7322167,22.4966079 83.2350739,19.3419267 87.4865025,19.3419267 C90.4350739,19.3419267 92.3207882,20.6309362 92.8007882,23.4803256 L98.3207882,23.4803256 C97.737931,17.4762551 92.8693596,15 87.417931,15 C80.1836453,15 74.937931,20.0881954 74.937931,27.3812754 L74.937931,27.6526459 C74.937931,34.843962 79.3950739,40 87.417931,40 Z M111.954265,37.3736264 C109.275499,37.3736264 107.772777,35.3956044 107.772777,32.0989011 L107.772777,31.8351648 C107.772777,28.5384615 109.340835,26.6263736 111.954265,26.6263736 C114.600363,26.6263736 116.135753,28.6043956 116.135753,31.9010989 L116.135753,32.1318681 C116.135753,35.3956044 114.600363,37.3736264 111.954265,37.3736264 Z M111.921597,41 C117.050454,41 120.937931,37.5384615 120.937931,32.0989011 L120.937931,31.8351648 C120.937931,26.4615385 117.083122,23 111.954265,23 C106.825408,23 102.937931,26.5274725 102.937931,31.9340659 L102.937931,32.1978022 C102.937931,37.5714286 106.825408,41 111.921597,41 Z M133.678672,41 C135.123116,41 136.19719,40.750774 136.937931,40.501548 L136.937931,36.5139319 C136.308301,36.7631579 135.715709,36.869969 134.900894,36.869969 C133.530524,36.869969 132.752746,36.1578947 132.752746,34.6625387 L132.752746,25.6904025 L136.82682,25.6904025 L136.82682,22.0232198 L132.752746,22.0232198 L132.752746,18 L127.419413,18 L127.419413,22.0232198 L124.937931,22.0232198 L124.937931,25.6904025 L127.419413,25.6904025 L127.419413,35.125387 C127.419413,39.006192 129.604598,41 133.678672,41 Z M149.954265,37.3736264 C147.275499,37.3736264 145.772777,35.3956044 145.772777,32.0989011 L145.772777,31.8351648 C145.772777,28.5384615 147.340835,26.6263736 149.954265,26.6263736 C152.600363,26.6263736 154.135753,28.6043956 154.135753,31.9010989 L154.135753,32.1318681 C154.135753,35.3956044 152.600363,37.3736264 149.954265,37.3736264 Z M149.921597,41 C155.050454,41 158.937931,37.5384615 158.937931,32.0989011 L158.937931,31.8351648 C158.937931,26.4615385 155.083122,23 149.954265,23 C144.825408,23 140.937931,26.5274725 140.937931,31.9340659 L140.937931,32.1978022 C140.937931,37.5714286 144.825408,41 149.921597,41 Z M164.937931,39 L170.511008,39 L170.511008,30.2727273 L173.661008,30.2727273 C179.303316,30.2727273 182.937931,27.8559441 182.937931,22.7874126 L182.937931,22.6531469 C182.937931,17.5846154 179.511008,15 173.487931,15 L164.937931,15 L164.937931,39 Z M170.511008,26.4797203 L170.511008,19.1286713 L173.349469,19.1286713 C176.014854,19.1286713 177.537931,20.1356643 177.537931,22.6867133 L177.537931,22.820979 C177.537931,25.2041958 176.084085,26.4797203 173.349469,26.4797203 L170.511008,26.4797203 Z M193.773997,41 C196.593669,41 198.331374,39.6516854 199.21662,37.8651685 L199.21662,40.6292135 L203.937931,40.6292135 L203.937931,23 L199.21662,23 L199.21662,33.3483146 C199.21662,35.9438202 197.642849,37.2247191 195.642849,37.2247191 C193.610062,37.2247191 192.659243,36.0786517 192.659243,33.6853933 L192.659243,23 L187.937931,23 L187.937931,34.3595506 C187.937931,38.9775281 190.429734,41 193.773997,41 Z M220.337931,41 C224.671264,41 227.937931,37.6031128 227.937931,31.5447471 L227.937931,31.2645914 C227.937931,25.2062257 224.604598,21.8793774 220.337931,21.8793774 C217.771264,21.8793774 215.737931,23.4202335 214.771264,25.1712062 L214.771264,14 L209.937931,14 L209.937931,40.614786 L214.771264,40.614786 L214.771264,37.7081712 C215.671264,39.5992218 217.637931,41 220.337931,41 Z M218.904598,37.0428016 C216.271264,37.0428016 214.604598,35.2568093 214.604598,31.5797665 L214.604598,31.2996109 C214.604598,27.6225681 216.337931,25.766537 218.871264,25.766537 C221.304598,25.766537 223.037931,27.5875486 223.037931,31.2996109 L223.037931,31.5797665 C223.037931,35.151751 221.571264,37.0428016 218.904598,37.0428016 Z M233.937931,41 L238.937931,41 L238.937931,14 L233.937931,14 L233.937931,41 Z M245.271264,39 L249.634901,39 L249.634901,21.6130319 L245.271264,21.6130319 L245.271264,39 Z M247.42278,19.2526596 C248.847022,19.2526596 249.937931,18.1223404 249.937931,16.6263298 C249.937931,15.1303191 248.847022,14 247.42278,14 C246.02884,14 244.937931,15.1303191 244.937931,16.6263298 C244.937931,18.1223404 246.02884,19.2526596 247.42278,19.2526596 Z M264.267411,41 C269.539087,41 272.660474,38.1648352 272.937931,34.0769231 L268.394578,34.0769231 C268.151804,36.2857143 266.521746,37.4065934 264.510185,37.4065934 C261.700937,37.4065934 260.070879,35.6263736 260.070879,32.1648352 L260.070879,31.9010989 C260.070879,28.6043956 261.804983,26.7582418 264.406139,26.7582418 C266.452382,26.7582418 267.735619,27.6813187 268.08244,29.6923077 L272.833885,29.6923077 C272.383018,24.7472527 268.498625,23 264.302093,23 C259.134463,23 254.937931,26.3956044 254.937931,31.967033 L254.937931,32.2307692 C254.937931,37.8681319 258.961052,41 264.267411,41 Z M283.57186,41 C288.192395,41 290.937931,39.0549451 290.937931,35.3296703 C290.937931,31.6373626 288.527217,30.5494505 284.141056,29.9230769 C281.596413,29.5604396 280.75936,29.1318681 280.75936,28.043956 C280.75936,26.989011 281.663377,26.2637363 283.237038,26.2637363 C284.911145,26.2637363 285.714717,26.9230769 285.982574,28.3406593 L290.435699,28.3406593 C290.000431,24.3846154 287.087485,23 283.203556,23 C279.620967,23 276.272752,24.7802198 276.272752,28.3736264 C276.272752,31.7362637 278.080788,33.0549451 282.734806,33.7472527 C285.245967,34.1098901 286.283913,34.6043956 286.283913,35.7912088 C286.283913,36.978022 285.413377,37.6703297 283.538377,37.6703297 C281.429002,37.6703297 280.658913,36.7802198 280.45802,35.2307692 L275.937931,35.2307692 C276.105342,38.956044 278.850877,41 283.57186,41 Z" id="Combined-Shape" fill="#2C2D54" fill-rule="nonzero"></path>
            </g>
        </g>
    </g>
</svg>