<svg width="458" height="322" viewBox="0 0 458 322" fill="none" xmlns="http://www.w3.org/2000/svg">
<path d="M283.538 181.88C277.811 185.408 259.653 187.743 251.937 188.173H286.737C285.821 186.002 284.752 183.899 283.538 181.88Z" fill="#F8CFFF"/>
<path d="M289.24 196.112H175.146L133.194 283.21C135.185 284.97 137.3 286.583 139.523 288.037L133.24 301.266C142.267 303.745 151.777 303.886 160.874 301.676L163.187 296.278C165.494 296.505 167.812 296.602 170.13 296.569L186.561 266.499L181.622 291.459C183.842 292.554 186.125 293.516 188.459 294.339L186.638 301.671C194.862 304.021 203.582 304.021 211.809 301.671L212.582 298.218C214.804 298.207 217.026 298.112 219.242 297.932L237.345 224.698L242.817 225.519L280.893 222.464C288.722 216.063 292.132 208.107 289.24 196.112Z" fill="#F8CFFF"/>
<path d="M144.64 123.471C144.503 125.144 143.881 126.74 142.851 128.065C141.821 129.391 140.427 130.387 138.84 130.933C137.253 131.479 135.541 131.551 133.914 131.14C132.287 130.729 130.815 129.854 129.677 128.62C128.539 127.386 127.786 125.847 127.508 124.192C127.231 122.537 127.441 120.836 128.114 119.299C128.787 117.761 129.893 116.453 131.297 115.534C132.702 114.615 134.343 114.125 136.022 114.123C138.404 114.221 140.65 115.26 142.266 117.013C143.882 118.766 144.736 121.089 144.64 123.471Z" fill="#F8CFFF"/>
<path d="M141.22 110.202C139.838 111.222 138.148 111.738 136.432 111.661C136.6 109.952 137.359 108.356 138.575 107.146C139.957 106.126 141.647 105.611 143.363 105.687C143.195 107.395 142.437 108.992 141.22 110.202Z" fill="#F8CFFF"/>
<path d="M241.494 101C241.418 102.198 241.175 103.38 240.774 104.511L245.152 100.407C243.962 100.757 242.734 100.956 241.494 101Z" fill="#6153BD"/>
<path d="M258.914 139.659V160.909C260.099 160.726 261.285 160.544 262.47 160.316C261.836 153.347 260.647 146.439 258.914 139.659Z" fill="#6153BD"/>
<path d="M232.329 171.169L226.766 169.117C226.121 168.563 225.497 167.985 224.896 167.384C226.36 161.046 230.277 163.417 232.329 171.169Z" fill="#6153BD"/>
<path d="M189.83 92.7368V150.375C189.828 152.479 188.992 154.497 187.504 155.984C186.017 157.472 183.999 158.308 181.895 158.31H178.886C180.99 158.308 183.007 157.472 184.495 155.984C185.983 154.497 186.819 152.479 186.82 150.375V92.7368C186.819 90.6328 185.983 88.6154 184.495 87.1277C183.007 85.64 180.99 84.8036 178.886 84.8024H181.895C183.999 84.8036 186.017 85.64 187.504 87.1277C188.992 88.6154 189.828 90.6328 189.83 92.7368Z" fill="#6153BD"/>
<path d="M161.056 186.171H155.128C154.178 186.18 153.258 185.834 152.549 185.202C151.839 184.57 151.39 183.696 151.288 182.751L148.79 158.36H145.78L149.109 188.73H163.564C163.571 188.396 163.512 188.064 163.389 187.754C163.266 187.444 163.082 187.161 162.848 186.923C162.615 186.684 162.336 186.495 162.028 186.366C161.72 186.237 161.39 186.171 161.056 186.171Z" fill="#6153BD"/>
<path d="M262.334 84.5288C262.872 83.8817 263.161 83.0638 263.15 82.2223C263.139 81.3808 262.827 80.571 262.272 79.9387C261.717 79.3064 260.954 78.8931 260.121 78.7732C259.288 78.6533 258.439 78.8347 257.728 79.2848C258.115 78.5913 258.257 77.7874 258.13 77.0033C258.004 76.2192 257.616 75.5009 257.03 74.9648C256.445 74.4281 255.697 74.1037 254.906 74.0437C254.114 73.9836 253.326 74.1914 252.667 74.6336C254.793 70.8056 248.697 67.5344 246.427 71.2136C245.023 75.3676 243.268 79.3949 241.183 83.252C247.019 75.092 250.941 83.7536 250.576 88.8608C250.622 89.864 251.123 90.1376 252.765 88.952C256.139 86.4896 258.556 92.2352 252.263 95.0624C250.324 98.7928 249.759 103.087 250.667 107.192C250.622 106.554 249.892 93.8312 264.256 91.1864C265 91.0292 265.667 90.6222 266.147 90.0333C266.628 89.4443 266.892 88.7087 266.896 87.9488C266.902 87.3938 266.777 86.8453 266.531 86.3478C266.285 85.8502 265.925 85.4178 265.48 85.0856C265.036 84.7523 264.52 84.5282 263.974 84.4314C263.427 84.3347 262.865 84.368 262.334 84.5288Z" fill="#6153BD"/>
<path d="M247.924 122.012C247.924 122.448 247.751 122.866 247.443 123.175C247.134 123.483 246.716 123.656 246.28 123.656C245.844 123.656 245.426 123.483 245.118 123.175C244.809 122.866 244.636 122.448 244.636 122.012C244.636 121.576 244.809 121.158 245.118 120.85C245.426 120.541 245.844 120.368 246.28 120.368C246.716 120.368 247.134 120.541 247.443 120.85C247.751 121.158 247.924 121.576 247.924 122.012Z" fill="#6153BD"/>
<path d="M232.146 137.197C232.146 137.633 231.973 138.051 231.665 138.359C231.357 138.668 230.938 138.841 230.502 138.841C230.066 138.841 229.648 138.668 229.34 138.359C229.032 138.051 228.858 137.633 228.858 137.197C228.858 136.761 229.032 136.343 229.34 136.034C229.648 135.726 230.066 135.553 230.502 135.553C230.938 135.553 231.357 135.726 231.665 136.034C231.973 136.343 232.146 136.761 232.146 137.197Z" fill="#6153BD"/>
<path d="M244.413 154.388C244.413 154.824 244.24 155.242 243.931 155.55C243.623 155.859 243.205 156.032 242.769 156.032C242.333 156.032 241.915 155.859 241.607 155.55C241.298 155.242 241.125 154.824 241.125 154.388C241.125 153.952 241.298 153.534 241.607 153.226C241.915 152.917 242.333 152.744 242.769 152.744C243.205 152.744 243.623 152.917 243.931 153.226C244.24 153.534 244.413 153.952 244.413 154.388Z" fill="#6153BD"/>
<path d="M334.6 159.541H318.184C317.603 159.541 317.047 159.771 316.636 160.182C316.226 160.592 315.995 161.149 315.995 161.73V185.989C315.995 186.569 316.226 187.126 316.636 187.537C317.047 187.947 317.603 188.178 318.184 188.178H334.6C335.178 188.17 335.731 187.937 336.139 187.528C336.548 187.119 336.781 186.567 336.789 185.989V161.72C336.784 161.142 336.552 160.589 336.142 160.181C335.732 159.773 335.178 159.543 334.6 159.541Z" fill="#6153BD"/>
<path d="M332.2 44.12L309.993 50.1848C309.597 50.293 309.236 50.5032 308.946 50.7944C308.656 51.0855 308.448 51.4476 308.342 51.8443C308.236 52.2411 308.236 52.6588 308.341 53.0557C308.447 53.4526 308.655 53.8149 308.944 54.1064L328.917 73.8968C329.134 74.1148 329.392 74.2879 329.677 74.4059C329.961 74.524 330.266 74.5847 330.574 74.5847C330.882 74.5847 331.187 74.524 331.471 74.4059C331.756 74.2879 332.014 74.1148 332.231 73.8968C332.521 73.606 332.731 73.2445 332.838 72.848L338.766 50.2304L332.2 44.12Z" fill="#6153BD"/>
<path d="M347.587 34.8416C346.782 34.0507 345.696 33.6115 344.567 33.6205C343.438 33.6295 342.36 34.0859 341.567 34.8896L332.311 44.2352L338.551 50.0264L347.625 40.8608C348.407 40.0519 348.841 38.9687 348.834 37.8434C348.827 36.7181 348.379 35.6404 347.587 34.8416Z" fill="#6153BD"/>
<path d="M151.754 4.28C151.753 4.66356 151.676 5.04318 151.529 5.39719C151.381 5.7512 151.165 6.07265 150.893 6.34321C150.621 6.61376 150.299 6.82811 149.944 6.97402C149.589 7.11993 149.209 7.19454 148.826 7.1936C148.442 7.19265 148.063 7.11617 147.709 6.96851C147.355 6.82085 147.033 6.60491 146.763 6.33302C146.492 6.06113 146.278 5.73862 146.132 5.38389C145.986 5.02916 145.911 4.64916 145.912 4.2656C145.914 3.49095 146.224 2.7488 146.773 2.20239C147.322 1.65598 148.065 1.35009 148.84 1.352C149.615 1.35391 150.357 1.66347 150.903 2.21258C151.45 2.76168 151.756 3.50535 151.754 4.28Z" fill="#6153BD"/>
<path d="M211.809 301.676C203.582 304.026 194.865 304.026 186.638 301.676C178.931 303.91 163.792 314.672 163.792 314.672H214.727C214.245 310.244 213.266 305.885 211.809 301.676Z" fill="#6153BD"/>
<path d="M160.874 301.676C151.778 303.886 142.266 303.745 133.24 301.266C124.976 303.975 117.452 308.564 111.261 314.672H163.746C163.107 310.276 162.147 305.932 160.874 301.676Z" fill="#6153BD"/>
<path d="M251.846 224.794L242.817 225.524L237.345 224.703L238.485 220.098L251.846 224.794Z" fill="#6153BD"/>
<path d="M409.758 188.178H55.2641C54.2119 188.178 53.2028 188.596 52.4588 189.34C51.7148 190.084 51.2969 191.093 51.2969 192.145C51.2969 193.197 51.7148 194.206 52.4588 194.95C53.2028 195.694 54.2119 196.112 55.2641 196.112H103.847L81.4841 319.916C81.4457 320.142 81.4313 320.372 81.4385 320.6H89.4641L111.938 196.112H353.169L375.65 320.646H383.675C383.63 320.418 383.63 320.19 383.584 319.926L361.223 196.122H409.758C410.787 196.086 411.761 195.652 412.476 194.912C413.191 194.172 413.59 193.183 413.59 192.154C413.59 191.126 413.191 190.137 412.476 189.397C411.761 188.657 410.787 188.213 409.758 188.178Z" fill="#6153BD"/>
<path d="M151.754 4.28C151.753 4.66356 151.676 5.04318 151.529 5.39719C151.381 5.7512 151.165 6.07265 150.893 6.34321C150.621 6.61376 150.299 6.82811 149.944 6.97402C149.589 7.11993 149.209 7.19454 148.826 7.1936C148.442 7.19265 148.063 7.11617 147.709 6.96851C147.355 6.82085 147.033 6.60491 146.763 6.33302C146.492 6.06113 146.278 5.73862 146.132 5.38389C145.986 5.02916 145.911 4.64916 145.912 4.2656C145.914 3.49095 146.224 2.7488 146.773 2.20239C147.322 1.65598 148.065 1.35009 148.84 1.352C149.615 1.35391 150.357 1.66347 150.903 2.21258C151.45 2.76168 151.756 3.50535 151.754 4.28Z" stroke="#120071" stroke-width="1.6"/>
<path d="M347.587 34.8416C346.782 34.0507 345.696 33.6115 344.567 33.6205C343.438 33.6295 342.36 34.0859 341.567 34.8896L332.311 44.2352L338.551 50.0264L347.625 40.8608C348.407 40.0519 348.841 38.9687 348.834 37.8434C348.827 36.7181 348.379 35.6404 347.587 34.8416Z" stroke="#120071" stroke-width="1.6" stroke-linejoin="round"/>
<path d="M409.758 188.178H55.2641C54.2119 188.178 53.2028 188.596 52.4588 189.34C51.7148 190.084 51.2969 191.093 51.2969 192.145C51.2969 193.197 51.7148 194.206 52.4588 194.95C53.2028 195.694 54.2119 196.112 55.2641 196.112H103.847L81.4841 319.916C81.4457 320.142 81.4313 320.372 81.4385 320.6H89.4641L111.938 196.112H353.169L375.65 320.646H383.675C383.63 320.418 383.63 320.19 383.584 319.926L361.223 196.122H409.758C410.787 196.086 411.761 195.652 412.476 194.912C413.191 194.172 413.59 193.183 413.59 192.154C413.59 191.126 413.191 190.137 412.476 189.397C411.761 188.657 410.787 188.213 409.758 188.178Z" stroke="#120071" stroke-width="1.6" stroke-linejoin="round"/>
<path d="M221.978 181.976C220.085 184.54 217.483 186.493 214.493 187.595C211.503 188.697 208.255 188.9 205.151 188.178" stroke="#120071" stroke-width="1.6" stroke-linecap="round" stroke-linejoin="round"/>
<path d="M118.84 174.315C118.84 174.315 96.6665 172.266 93.6113 188.178" stroke="#120071" stroke-width="1.6" stroke-linecap="round" stroke-linejoin="round"/>
<path d="M126.719 177.872C126.035 177.507 125.483 177.152 124.941 176.823C122.363 175.266 121.43 174.224 119.15 172.719C116.957 171.266 114.924 169.584 113.085 167.703C108.021 162.507 109.71 161.593 115.41 165.013L115.502 165.058C119.286 167.351 123.234 169.363 127.312 171.08" stroke="#120071" stroke-width="1.6" stroke-linecap="round" stroke-linejoin="round"/>
<path d="M124.941 176.823C119.959 174.62 114.826 172.775 109.581 171.303C105.16 170.06 105.933 169.064 106.662 168.932C109.356 168.727 112.064 168.834 114.733 169.251" stroke="#120071" stroke-width="1.6" stroke-linecap="round" stroke-linejoin="round"/>
<path d="M125.899 186.171C124.976 186.049 124.047 185.973 123.117 185.943C115.233 185.655 118.012 183.901 120.746 183.116C122.162 182.71 124.485 182.25 126.355 181.611" stroke="#120071" stroke-width="1.6" stroke-linecap="round" stroke-linejoin="round"/>
<path d="M296.442 229.446L309.438 320.646" stroke="#120071" stroke-width="1.6" stroke-linecap="round" stroke-linejoin="round"/>
<path d="M310.533 163.234L289.192 161.684" stroke="#120071" stroke-width="1.6" stroke-linecap="round" stroke-linejoin="round"/>
<path d="M212.581 298.222L211.809 301.676" stroke="#120071" stroke-width="1.6" stroke-linecap="round" stroke-linejoin="round"/>
<path d="M186.592 301.676L188.459 294.344" stroke="#120071" stroke-width="1.6" stroke-linecap="round" stroke-linejoin="round"/>
<path d="M163.199 296.25L160.874 301.676" stroke="#120071" stroke-width="1.6" stroke-linecap="round" stroke-linejoin="round"/>
<path d="M133.194 301.311L139.523 288.037" stroke="#120071" stroke-width="1.6" stroke-linecap="round" stroke-linejoin="round"/>
<path d="M186.592 266.382L170.13 296.569C156.558 297.035 143.328 292.251 133.194 283.21L175.146 196.112" stroke="#120071" stroke-width="1.6" stroke-linecap="round" stroke-linejoin="round"/>
<path d="M206.154 298.04L222.981 218.274C223.226 217.108 223.699 216.003 224.375 215.023C225.05 214.042 225.913 213.205 226.914 212.56C227.915 211.916 229.034 211.476 230.206 211.267C231.378 211.058 232.58 211.083 233.742 211.342C247.9 214.508 274.516 217.417 277.194 196.218" stroke="#120071" stroke-width="1.6" stroke-linecap="round" stroke-linejoin="round"/>
<path d="M146.853 167.854L198.539 159.454C207.067 146.494 217.195 116.475 231.873 112.304C234.28 111.69 236.472 110.429 238.211 108.656" stroke="#120071" stroke-width="1.6" stroke-linecap="round" stroke-linejoin="round"/>
<path d="M241.495 101C242.703 100.957 243.903 100.78 245.073 100.472L240.753 104.511" stroke="#120071" stroke-width="1.6" stroke-linecap="round" stroke-linejoin="round"/>
<path d="M251.39 109.016C252.095 110.312 253.269 111.291 254.673 111.752C261.967 114.474 268.727 118.455 274.646 123.512C281.399 129.709 287.366 152.415 289.967 167.379C290.596 170.897 289.875 174.523 287.948 177.532C286.02 180.541 283.029 182.713 279.57 183.613C270.549 186.118 261.285 187.647 251.937 188.173" stroke="#120071" stroke-width="1.6" stroke-linecap="round" stroke-linejoin="round"/>
<path d="M267.669 159.267C254.433 161.82 241.014 163.314 227.541 163.736" stroke="#120071" stroke-width="1.6" stroke-linecap="round" stroke-linejoin="round"/>
<path d="M262.425 160.28C261.832 153.305 260.642 146.394 258.868 139.623V160.918" stroke="#120071" stroke-width="1.6" stroke-linecap="round" stroke-linejoin="round"/>
<path d="M154.718 166.563C158.872 172.932 160.347 180.683 158.822 188.132" stroke="#120071" stroke-width="1.6" stroke-linecap="round" stroke-linejoin="round"/>
<path d="M211.079 169.938C207.568 171.488 198.585 174.044 193.751 175.592C191.471 176.312 195.529 178.921 209.301 174.954" stroke="#120071" stroke-width="1.6" stroke-linecap="round" stroke-linejoin="round"/>
<path d="M211.763 173.494C208.435 175.592 203.603 178.006 199.223 180.334C197.171 181.426 199.041 183.8 211.171 178.784" stroke="#120071" stroke-width="1.6" stroke-linecap="round" stroke-linejoin="round"/>
<path d="M212.721 176.823C210.801 179.194 209.138 181.494 205.926 184.94C204.431 186.546 207.177 187.52 217.326 180.38C219.198 179.062 220.206 180.507 222.662 182.569C225.909 185.293 228.088 188.451 230.459 188.132" stroke="#120071" stroke-width="1.6" stroke-linecap="round" stroke-linejoin="round"/>
<path d="M218.649 166.198C215.001 157.798 217.372 157.318 218.649 159.45C220.813 162.943 223.434 166.132 226.442 168.932" stroke="#120071" stroke-width="1.6" stroke-linecap="round" stroke-linejoin="round"/>
<path d="M224.896 167.384C226.034 162.44 228.671 162.795 230.75 166.87C233.15 171.584 235.338 188.178 230.322 188.178" stroke="#120071" stroke-width="1.6" stroke-linecap="round" stroke-linejoin="round"/>
<path d="M232.161 171.106C226.797 169.105 218.19 165.606 215.867 165.606C215.001 165.606 205.105 168.486 200.317 169.801C197.171 170.67 195.669 172.122 200.773 171.944C202.917 171.87 205.288 171.579 207.431 171.306" stroke="#120071" stroke-width="1.6" stroke-linecap="round" stroke-linejoin="round"/>
<path d="M222.16 135.56C220.182 145.216 220.307 155.186 222.525 164.79" stroke="#120071" stroke-width="1.6" stroke-linecap="round" stroke-linejoin="round"/>
<path d="M149.109 188.132H125.67L128.589 158.355H145.826L149.109 188.132Z" stroke="#120071" stroke-width="1.6" stroke-linecap="round" stroke-linejoin="round"/>
<path d="M144.64 123.471C144.503 125.144 143.881 126.74 142.851 128.065C141.821 129.391 140.427 130.387 138.84 130.933C137.253 131.479 135.541 131.551 133.914 131.14C132.287 130.73 130.815 129.854 129.677 128.62C128.539 127.386 127.786 125.847 127.508 124.192C127.231 122.537 127.441 120.836 128.114 119.299C128.787 117.761 129.893 116.453 131.297 115.534C132.702 114.615 134.343 114.125 136.022 114.123C138.404 114.221 140.65 115.26 142.266 117.013C143.882 118.766 144.736 121.089 144.64 123.471Z" stroke="#120071" stroke-width="1.6" stroke-linecap="round" stroke-linejoin="round"/>
<path d="M141.22 110.202C139.838 111.222 138.148 111.738 136.432 111.661C136.6 109.952 137.359 108.356 138.575 107.146C139.957 106.126 141.647 105.611 143.363 105.687C143.195 107.395 142.437 108.992 141.22 110.202Z" stroke="#120071" stroke-width="1.6" stroke-linecap="round" stroke-linejoin="round"/>
<path d="M241.175 83.2976C243.256 79.4383 245.011 75.4114 246.419 71.2592C246.744 70.7833 247.178 70.3917 247.684 70.1169C248.191 69.8421 248.755 69.692 249.331 69.6791C249.907 69.6662 250.478 69.7909 250.996 70.0427C251.515 70.2946 251.965 70.6663 252.311 71.1272C252.772 71.744 253.024 72.4952 253.031 73.2656C253.027 73.7595 252.901 74.2448 252.666 74.6792C253.326 74.2392 254.114 74.0332 254.904 74.0944C255.694 74.1556 256.441 74.4803 257.024 75.0166C257.608 75.5529 257.995 76.2696 258.122 77.0518C258.25 77.8341 258.111 78.6365 257.728 79.3304C258.439 78.8804 259.288 78.699 260.121 78.8188C260.954 78.9387 261.716 79.352 262.272 79.9843C262.827 80.6167 263.139 81.4265 263.15 82.268C263.161 83.1094 262.872 83.9274 262.334 84.5744C262.772 84.4342 263.234 84.3832 263.693 84.4244C264.152 84.4655 264.597 84.598 265.004 84.8141C265.41 85.0301 265.77 85.3253 266.06 85.6823C266.351 86.0393 266.568 86.4509 266.697 86.8928C266.888 87.5597 266.874 88.2685 266.658 88.9275C266.441 89.5864 266.032 90.1652 265.482 90.5888C265.117 90.8684 264.699 91.0717 264.254 91.1864C260.37 91.607 256.796 93.5015 254.268 96.4794C251.739 99.4573 250.45 103.292 250.665 107.192" stroke="#120071" stroke-width="1.6" stroke-linecap="round" stroke-linejoin="round"/>
<path d="M251.39 109.016L250.523 115.856L243.547 110.338L235.658 114.306L238.211 108.651" stroke="#120071" stroke-width="1.6" stroke-linecap="round" stroke-linejoin="round"/>
<path d="M243.547 110.338C237.801 124.839 235.749 143.034 235.658 163.28" stroke="#120071" stroke-width="1.6" stroke-linecap="round" stroke-linejoin="round"/>
<path d="M336.798 167.338C338.529 167.338 340.187 168.025 341.409 169.249C342.015 169.854 342.496 170.572 342.825 171.363C343.153 172.154 343.322 173.003 343.322 173.859C343.322 174.716 343.153 175.564 342.825 176.355C342.496 177.146 342.015 177.865 341.409 178.47C340.187 179.694 338.529 180.38 336.798 180.38" stroke="#120071" stroke-width="1.6" stroke-linecap="round" stroke-linejoin="round"/>
<path d="M396.58 106.827C396.581 107.421 396.45 108.007 396.197 108.544C395.943 109.081 395.574 109.555 395.115 109.931C394.656 110.308 394.119 110.578 393.543 110.722C392.968 110.866 392.367 110.88 391.785 110.763C391.202 110.648 390.653 110.406 390.175 110.052C389.698 109.699 389.305 109.244 389.025 108.721C388.745 108.197 388.585 107.618 388.556 107.025C388.528 106.431 388.631 105.839 388.859 105.291C389.164 104.559 389.679 103.933 390.34 103.493C391 103.052 391.775 102.817 392.569 102.817C393.362 102.817 394.138 103.051 394.799 103.491C395.459 103.931 395.974 104.557 396.28 105.289C396.482 105.776 396.582 106.299 396.58 106.827Z" stroke="#120071" stroke-width="1.6" stroke-linecap="round" stroke-linejoin="round"/>
<path d="M364.341 176.595L392.567 110.84" stroke="#120071" stroke-width="1.6" stroke-linecap="round" stroke-linejoin="round"/>
<path d="M392.567 102.814L351.436 56.6672" stroke="#120071" stroke-width="1.6" stroke-linecap="round" stroke-linejoin="round"/>
<path d="M346.511 53.5208L339.534 49.052" stroke="#120071" stroke-width="1.6" stroke-linecap="round" stroke-linejoin="round"/>
<path d="M323.118 68.1584C322.378 68.737 321.503 69.1171 320.575 69.2627C319.647 69.4083 318.698 69.3145 317.816 68.9902C316.935 68.666 316.151 68.122 315.539 67.4098C314.926 66.6977 314.506 65.8409 314.317 64.9208C314.158 64.1445 314.169 63.3427 314.35 62.571C314.531 61.7994 314.878 61.0764 315.366 60.452" stroke="#120071" stroke-width="1.6" stroke-linecap="round" stroke-linejoin="round"/>
<path d="M352.12 54.7976C352.121 55.2362 352.025 55.6696 351.838 56.0664C351.651 56.4632 351.378 56.8134 351.039 57.0916C350.7 57.3699 350.303 57.5692 349.877 57.6751C349.452 57.781 349.008 57.7909 348.578 57.704C347.852 57.5652 347.204 57.16 346.762 56.5681C346.319 55.9761 346.114 55.2401 346.187 54.5047C346.259 53.7693 346.604 53.0875 347.153 52.5933C347.703 52.099 348.417 51.8281 349.156 51.8336C349.939 51.8447 350.686 52.1606 351.24 52.7141C351.793 53.2675 352.109 54.015 352.12 54.7976Z" stroke="#120071" stroke-width="1.6" stroke-linecap="round" stroke-linejoin="round"/>
<path d="M367.259 179.559C367.26 179.998 367.164 180.431 366.977 180.828C366.79 181.225 366.517 181.575 366.178 181.853C365.839 182.132 365.442 182.331 365.016 182.437C364.59 182.543 364.147 182.553 363.717 182.466C363.142 182.352 362.613 182.07 362.2 181.654C361.891 181.344 361.654 180.969 361.507 180.557C361.36 180.144 361.306 179.704 361.349 179.269C361.392 178.833 361.53 178.412 361.755 178.036C361.98 177.66 362.285 177.339 362.649 177.094C363.218 176.712 363.903 176.539 364.587 176.606C365.27 176.673 365.908 176.975 366.393 177.462C366.668 177.737 366.886 178.064 367.035 178.424C367.184 178.784 367.26 179.17 367.259 179.559Z" stroke="#120071" stroke-width="1.6" stroke-linecap="round" stroke-linejoin="round"/>
<path d="M242.817 235.693L237.345 320.646" stroke="#120071" stroke-width="1.6" stroke-linecap="round" stroke-linejoin="round"/>
<path d="M153.486 44.5832H126.309V17.4056H153.486V44.5832Z" stroke="#120071" stroke-width="1.6" stroke-linecap="round" stroke-linejoin="round"/>
<path d="M139.897 23.6072L147.832 6.87201" stroke="#120071" stroke-width="1.6" stroke-linecap="round" stroke-linejoin="round"/>
<path d="M61.6938 240.411H40.9458" stroke="#120071" stroke-width="1.6" stroke-linecap="round" stroke-linejoin="round"/>
<path d="M51.2969 250.786V230.038" stroke="#120071" stroke-width="1.6" stroke-linecap="round" stroke-linejoin="round"/>
<path d="M397.401 227.257C397.482 228.147 397.366 229.044 397.059 229.883C396.752 230.723 396.262 231.484 395.626 232.111C394.989 232.738 394.221 233.216 393.377 233.511C392.533 233.805 391.634 233.909 390.745 233.814C389.557 233.687 388.433 233.211 387.515 232.446C386.596 231.681 385.925 230.661 385.585 229.515C385.333 228.658 385.274 227.756 385.412 226.873C385.55 225.99 385.882 225.149 386.384 224.41C386.886 223.671 387.545 223.052 388.315 222.598C389.084 222.144 389.945 221.866 390.834 221.785C392.028 221.662 393.23 221.901 394.286 222.472C395.341 223.042 396.2 223.918 396.75 224.984C397.115 225.69 397.336 226.462 397.401 227.257Z" stroke="#120071" stroke-width="1.6" stroke-linecap="round" stroke-linejoin="round"/>
<path d="M1 320.646H457" stroke="#120071" stroke-width="1.6" stroke-linecap="round" stroke-linejoin="round"/>
<path d="M163.792 314.672H214.727" stroke="#120071" stroke-width="1.6" stroke-linecap="round" stroke-linejoin="round"/>
<path d="M111.215 314.672H163.701" stroke="#120071" stroke-width="1.6" stroke-linecap="round" stroke-linejoin="round"/>
<path d="M163.789 314.6C163.306 310.195 162.328 305.859 160.873 301.674C151.777 303.884 142.266 303.742 133.24 301.263C122.421 304.937 112.891 311.65 105.789 320.6C126.856 320.6 140.855 320.646 156.724 320.6" stroke="#120071" stroke-width="1.6" stroke-linecap="round" stroke-linejoin="round"/>
<path d="M211.809 301.676C203.582 304.026 194.865 304.026 186.638 301.676C175.281 304.969 160.749 316.575 156.724 320.6C180.801 320.6 195.94 320.372 214.864 320.372C215.031 314.003 213.995 307.66 211.809 301.676Z" stroke="#120071" stroke-width="1.6" stroke-linecap="round" stroke-linejoin="round"/>
<path d="M237.345 224.703L238.485 220.098L251.846 224.794" stroke="#120071" stroke-width="1.6" stroke-linecap="round" stroke-linejoin="round"/>
<path d="M237.345 224.703L242.817 225.524L292.058 221.502" stroke="#120071" stroke-width="1.6" stroke-linecap="round" stroke-linejoin="round"/>
<path d="M298.403 221.967L282.899 220.827" stroke="#120071" stroke-width="1.6" stroke-linecap="round" stroke-linejoin="round"/>
<path d="M155.174 294.882L193.751 230.175" stroke="#120071" stroke-width="1.6" stroke-linecap="round" stroke-linejoin="round"/>
<path d="M239.351 163.006C243.455 169.071 244.504 177.462 242.406 188.178" stroke="#120071" stroke-width="1.6" stroke-linecap="round" stroke-linejoin="round"/>
<path d="M234.837 234.781L242.817 235.693L292.737 231.543C293.785 231.462 294.781 231.052 295.583 230.373C296.385 229.693 296.953 228.779 297.206 227.758L318.775 123.198C319.132 121.506 318.924 119.743 318.183 118.181C317.441 116.619 316.207 115.343 314.671 114.55C313.653 114.022 312.533 113.721 311.387 113.667L252.94 110.84" stroke="#120071" stroke-width="1.6" stroke-linecap="round" stroke-linejoin="round"/>
<path d="M215.913 194.744C211.243 195.644 206.947 197.917 203.576 201.271C200.205 204.626 197.911 208.911 196.989 213.577L181.629 291.462C193.345 297.006 206.353 299.247 219.249 297.942C219.249 297.716 233.214 241.395 237.352 224.708" stroke="#120071" stroke-width="1.6" stroke-linecap="round" stroke-linejoin="round"/>
<path d="M178.886 84.8024C180.99 84.8036 183.007 85.64 184.495 87.1277C185.983 88.6154 186.819 90.6328 186.82 92.7368V150.421C186.82 152.526 185.984 154.544 184.497 156.033C183.009 157.522 180.991 158.359 178.886 158.36H100.043C97.9375 158.359 95.9178 157.523 94.4267 156.036C92.9355 154.549 92.0944 152.531 92.0874 150.426V92.7368C92.0855 91.6955 92.289 90.6641 92.6862 89.7015C93.0833 88.7389 93.6664 87.8641 94.402 87.1272C95.1377 86.3902 96.0114 85.8055 96.9732 85.4066C97.9351 85.0077 98.9661 84.8024 100.007 84.8024H178.886Z" stroke="#120071" stroke-width="1.6" stroke-linecap="round" stroke-linejoin="round"/>
<path d="M189.83 92.7368V150.375C189.828 152.479 188.992 154.497 187.504 155.984C186.017 157.472 183.999 158.308 181.895 158.31H178.886C180.99 158.308 183.007 157.472 184.495 155.984C185.983 154.497 186.819 152.479 186.82 150.375V92.7368C186.819 90.6328 185.983 88.6154 184.495 87.1277C183.007 85.64 180.99 84.8036 178.886 84.8024H181.895C183.999 84.8036 186.017 85.64 187.504 87.1277C188.992 88.6154 189.828 90.6328 189.83 92.7368Z" stroke="#120071" stroke-width="1.6" stroke-linecap="round" stroke-linejoin="round"/>
<path d="M252.76 89C256.12 86.5232 258.52 92.2472 252.258 95.1104C251.387 95.5088 248.701 104.276 251.392 109.03C247.096 110.444 241.907 111.286 238.213 108.666C240.164 106.569 241.324 103.859 241.494 101C229.638 101.182 240.947 83.2616 241.175 83.2616C246.971 75.1568 250.878 83.684 250.576 88.7624C250.487 90.2624 251.538 89.8952 252.76 89Z" stroke="#120071" stroke-width="1.6" stroke-linecap="round" stroke-linejoin="round"/>
<path d="M281.138 222.32C284.167 220.05 286.586 217.064 288.177 213.629C289.769 210.194 290.484 206.419 290.258 202.64C290.092 200.482 289.777 198.337 289.314 196.222" stroke="#120071" stroke-width="1.6" stroke-linecap="round" stroke-linejoin="round"/>
<path d="M283.538 181.88C284.772 183.893 285.852 185.998 286.766 188.175" stroke="#120071" stroke-width="1.6" stroke-linecap="round" stroke-linejoin="round"/>
<path d="M336.798 185.989C336.798 186.569 336.568 187.126 336.157 187.537C335.747 187.947 335.19 188.178 334.61 188.178H318.194C317.613 188.178 317.056 187.947 316.646 187.537C316.235 187.126 316.005 186.569 316.005 185.989V161.72C316.005 161.139 316.235 160.583 316.646 160.172C317.056 159.762 317.613 159.531 318.194 159.531H334.6C335.18 159.532 335.737 159.763 336.147 160.173C336.557 160.583 336.788 161.14 336.789 161.72L336.798 185.989Z" stroke="#120071" stroke-width="1.6" stroke-linecap="round" stroke-linejoin="round"/>
<path d="M384.952 182.478C385.132 182.482 385.302 182.55 385.432 182.665C385.494 182.72 385.544 182.787 385.579 182.862C385.614 182.937 385.633 183.019 385.636 183.102V187.549C385.633 187.632 385.614 187.713 385.579 187.788C385.544 187.863 385.494 187.93 385.432 187.986C385.299 188.102 385.129 188.169 384.952 188.173H343.684C343.507 188.169 343.337 188.102 343.204 187.986C343.142 187.93 343.092 187.863 343.057 187.788C343.022 187.713 343.003 187.632 343 187.549V183.102C343.003 183.019 343.022 182.937 343.057 182.862C343.092 182.787 343.142 182.72 343.204 182.665C343.337 182.548 343.507 182.482 343.684 182.478H384.952Z" stroke="#120071" stroke-width="1.6" stroke-linecap="round" stroke-linejoin="round"/>
<path d="M242.817 235.693V225.524" stroke="#120071" stroke-width="1.6" stroke-linecap="round" stroke-linejoin="round"/>
<path d="M332.2 44.12L309.993 50.1848C309.597 50.293 309.236 50.5032 308.946 50.7944C308.656 51.0855 308.448 51.4476 308.342 51.8443C308.236 52.2411 308.236 52.6588 308.341 53.0557C308.447 53.4526 308.655 53.8149 308.944 54.1064L328.917 73.8968C329.134 74.1148 329.392 74.2879 329.677 74.4059C329.961 74.524 330.266 74.5847 330.574 74.5847C330.882 74.5847 331.187 74.524 331.471 74.4059C331.756 74.2879 332.014 74.1148 332.231 73.8968C332.521 73.606 332.731 73.2445 332.838 72.848L338.766 50.2304L332.2 44.12Z" stroke="#120071" stroke-width="1.6" stroke-linejoin="round"/>
</svg>
